<svg width="24" height="24" fill="none" xmlns="http://www.w3.org/2000/svg" class=""><path fill-rule="evenodd" clip-rule="evenodd" d="M14.316 7.263a2.263 2.263 0 11-4.526 0 2.263 2.263 0 014.526 0zm-1.213 4.133A4.265 4.265 0 0012.053 3a4.263 4.263 0 00-2.867 7.42A9.692 9.692 0 004.874 14C3.468 16.106 3 18.476 3 20.053a1 1 0 002 0c0-1.249.385-3.217 1.537-4.942 1.127-1.688 3.005-3.176 6.106-3.539a.994.994 0 00.46-.176z" fill="#C6CAD8" class="svg-active"></path><path d="M20.105 20.052c0-2.003-.857-5.529-3.79-7.694" stroke="#C6CAD8" stroke-width="2" stroke-linecap="round" stroke-linejoin="round" class="svg-active"></path></svg>